<?xml version="1.0" encoding="utf-8"?>
<!-- Generator: Adobe Illustrator 17.1.0, SVG Export Plug-In . SVG Version: 6.00 Build 0)  -->
<!DOCTYPE svg PUBLIC "-//W3C//DTD SVG 1.1//EN" "http://www.w3.org/Graphics/SVG/1.1/DTD/svg11.dtd">
<svg version="1.1" id="Layer_1" xmlns="http://www.w3.org/2000/svg" xmlns:xlink="http://www.w3.org/1999/xlink" x="0px" y="0px"
	 viewBox="0 0 45 26" enable-background="new 0 0 45 26" xml:space="preserve">
<path fill-rule="evenodd" clip-rule="evenodd" fill="#ffffff" d="M22,25.9h2.7c0,0,0.8-0.1,1.2-0.5c0.4-0.4,0.4-1.2,0.4-1.2s-0.1-3.7,1.6-4.2
	c1.7-0.5,3.8,3.5,6,5.1c1.7,1.2,3,0.9,3,0.9l6-0.1c0,0,3.1-0.2,1.7-2.7c-0.1-0.2-0.9-1.9-4.5-5.2c-3.8-3.5-3.3-3,1.3-9.1
	c2.8-3.7,3.9-6,3.5-7c-0.3-0.9-2.4-0.7-2.4-0.7l-6.8,0c0,0-0.5-0.1-0.9,0.2c-0.4,0.2-0.6,0.7-0.6,0.7S33.3,5,31.8,7.5
	c-3,5.2-4.2,5.5-4.7,5.1c-1.1-0.8-0.9-3-0.9-4.6c0-5,0.8-7.1-1.5-7.7C24.1,0.1,23.5,0,21.6,0c-2.4,0-4.5,0-5.6,0.6
	c-0.8,0.4-1.4,1.2-1,1.3c0.4,0.1,1.5,0.3,2,1c0.7,1,0.7,3.1,0.7,3.1s0.4,5.9-0.9,6.6c-0.9,0.5-2.2-0.5-4.8-5.2
	C10.5,5,9.5,2.3,9.5,2.3S9.3,1.8,8.9,1.6c-0.4-0.3-1-0.4-1-0.4l-6.4,0c0,0-1,0-1.3,0.5c-0.3,0.4,0,1.2,0,1.2s5,11.9,10.7,17.9
	C16.1,26.3,22,25.9,22,25.9L22,25.9z"/>
</svg>
